<?xml version="1.0" encoding="UTF-8"?>
<!DOCTYPE svg PUBLIC "-//W3C//DTD SVG 1.1//EN" "http://www.w3.org/Graphics/SVG/1.1/DTD/svg11.dtd">
<!-- Creator: CorelDRAW 2021 (64-Bit) -->
<svg xmlns="http://www.w3.org/2000/svg" xml:space="preserve" width="4000px" height="4000px" version="1.1" style="shape-rendering:geometricPrecision; text-rendering:geometricPrecision; image-rendering:optimizeQuality; fill-rule:evenodd; clip-rule:evenodd"
viewBox="0 0 129.55 129.45"
 xmlns:xlink="http://www.w3.org/1999/xlink"
 xmlns:xodm="http://www.corel.com/coreldraw/odm/2003">
 <defs>
  <style type="text/css">
   <![CDATA[
    .fil0 {fill:#CEA651}
    .fil1 {fill:#DBBE80}
   ]]>
  </style>
 </defs>
 <g id="Layer_x0020_1">
  <metadata id="CorelCorpID_0Corel-Layer"/>
  <g id="_1691524324176">
   <path class="fil0" d="M58.41 59.9l-10.37 10.9c-22.71,0.72 -47.45,4.48 -47.85,-22.35 -0.85,-56.62 -2.83,-47.97 94.28,-47.98 31.65,0 36.31,4.06 34.57,36.89l-10.48 -0.01c-1.28,-33.21 4.26,-26.12 -77,-26.12 -10.39,0 -24.59,-2.12 -28.91,5.04 -2.6,4.3 -2.21,27.1 -1.62,33.07 1.21,12.12 12.9,10.67 23.91,10.67 10.61,0 17.97,1.02 23.47,-0.11z"/>
   <path class="fil1" d="M36.93 84.59c-2.46,2.43 -4.3,4.14 -6.68,6.53 -3.95,3.97 -3.18,4.21 -3.19,11.47l75.3 0.01 -0.2 -10.71 -55.89 0.02 52.35 -52.56c4.56,-4.39 3.73,-3.91 3.73,-12.04l-75.28 0.01 0.19 10.73 55.87 -0.04c-4.81,6.43 -12.07,12.2 -17.46,17.96 -8.16,8.71 -19.85,19.8 -28.74,28.62z"/>
   <path class="fil0" d="M72.23 70.78c50.42,0.42 46.21,-5.8 46.21,32.76 0,11.94 -3.25,15.14 -15.15,15.14l-78.27 0c-16.27,0 -14.04,-9.62 -14.04,-25.39l-10.76 -0.01c0,15.05 -2.64,36.17 21.49,36.17l85.99 -0.01c26.36,0 21.5,-25.7 21.49,-49.05 -0.01,-14.7 -9.3,-20.42 -23.65,-20.39 -17.38,0.03 -24.58,-3.8 -33.31,10.78z"/>
  </g>
 </g>
</svg>
