<?xml version="1.0" encoding="UTF-8"?>
<!DOCTYPE svg PUBLIC "-//W3C//DTD SVG 1.1//EN" "http://www.w3.org/Graphics/SVG/1.1/DTD/svg11.dtd">
<!-- Creator: CorelDRAW 2021 (64-Bit) -->
<svg xmlns="http://www.w3.org/2000/svg" xml:space="preserve" width="4000px" height="931px" version="1.1" style="shape-rendering:geometricPrecision; text-rendering:geometricPrecision; image-rendering:optimizeQuality; fill-rule:evenodd; clip-rule:evenodd"
viewBox="0 0 555.73 129.45"
 xmlns:xlink="http://www.w3.org/1999/xlink"
 xmlns:xodm="http://www.corel.com/coreldraw/odm/2003">
 <defs>
  <style type="text/css">
   <![CDATA[
    .str0 {stroke:#CEA651;stroke-width:0.49;stroke-linecap:round;stroke-linejoin:round;stroke-miterlimit:2.61313}
    .fil1 {fill:none;fill-rule:nonzero}
    .fil2 {fill:#CEA651}
    .fil3 {fill:#DBBE80}
    .fil0 {fill:#CEA651;fill-rule:nonzero}
   ]]>
  </style>
 </defs>
 <g id="Layer_x0020_1">
  <metadata id="CorelCorpID_0Corel-Layer"/>
  <g id="_1691524291104">
   <polygon class="fil0" points="151.18,92.17 151.18,91.99 186.48,37.38 186.48,34.13 149.92,34.13 149.92,37.28 182.51,37.28 182.51,37.47 147.12,92.17 147.12,95.33 188.01,95.33 188.01,92.17 "/>
   <path id="_1" class="fil0" d="M238.47 74.65l0 -40.52 -3.43 0 0 40.98c0,10.92 -6.05,17.87 -16.07,17.87 -9.29,0 -16.15,-6.32 -16.15,-17.87l0 -40.98 -3.61 0 0 41.88c0,11.82 8.21,20.22 19.58,20.22 11.29,0 19.68,-7.76 19.68,-21.58z"/>
   <path id="_2" class="fil0" d="M279.18 33.22c-15.79,0 -29.97,11.65 -29.97,31.96 0,20.13 12.73,30.6 27.9,30.6 6.86,0 13.63,-1.09 18.77,-3.07l0 -26.36 -18.86 0 0 3.16 15.25 0 0 20.85c-4.06,1.45 -9.3,2.17 -14.26,2.17 -14.26,0 -24.82,-10.2 -24.82,-27.8 0,-17.7 11.73,-28.26 25.72,-28.26 5.15,0 10.92,1.36 14.72,3.16l0.45 -3.52c-3.34,-1.62 -8.4,-2.89 -14.9,-2.89z"/>
   <path id="_3" class="fil0" d="M346.79 95.33l3.79 0 -21.48 -61.2 -3.7 0 -21.48 61.2 3.61 0 7.4 -21.58 24.46 0 7.4 21.58zm-30.78 -24.74l11.1 -32.04 0.27 0 11.02 32.04 -22.39 0z"/>
   <path id="_4" class="fil0" d="M360.51 48.66c0,8.12 5.69,12.82 13.45,16.34 9.57,4.33 13.9,7.49 13.9,15.25 0,8.04 -7.22,12.73 -15.7,12.73 -5.33,0 -9.48,-0.81 -13.63,-2.35l-0.45 3.34c4.06,1.63 8.39,2.26 13.72,2.26 12.09,0 19.94,-7.13 19.94,-17.06 0,-7.94 -5.23,-12.19 -14.08,-16.25 -8.66,-3.97 -13.27,-7.04 -13.27,-15.07 0,-7.14 6.14,-11.38 13.54,-11.38 4.79,0 8.49,0.81 11.2,2.17l0.45 -3.25c-2.44,-1.26 -6.59,-2.17 -11.65,-2.17 -8.75,0 -17.42,5.06 -17.42,15.44z"/>
   <path id="_5" class="fil0" d="M401.67 64.91c0,20.13 13.18,31.32 27.9,31.32 6.04,0 11.91,-0.9 16.33,-2.8l-0.45 -3.34c-4.87,1.99 -10.02,2.89 -14.98,2.89 -13.81,0 -24.83,-10.65 -24.83,-28.25 0,-17.25 11.92,-28.26 25.64,-28.26 5.15,0 10.56,1.09 15.08,2.8l0.45 -3.25c-3.34,-1.8 -9.3,-2.8 -15.8,-2.8 -15.8,0 -29.34,12.64 -29.34,31.69z"/>
   <path id="_6" class="fil0" d="M495.28 95.33l3.79 0 -21.48 -61.2 -3.7 0 -21.49 61.2 3.61 0 7.41 -21.58 24.46 0 7.4 21.58zm-30.78 -24.74l11.1 -32.04 0.27 0 11.01 32.04 -22.38 0z"/>
   <path id="_7" class="fil0" d="M555.49 34.13l-3.34 0 0 39.53c0,5.42 0,10.83 0.27,18.15l-0.27 0c-4.52,-7.32 -8.04,-12.73 -11.65,-18.15l-26.08 -39.53 -4.97 0 0 61.2 3.34 0 0 -39.54c0,-5.42 0,-10.83 -0.27,-18.05l0.27 0c4.42,7.22 8.04,12.63 11.65,18.05l26.08 39.54 4.97 0 0 -61.2z"/>
   <polygon id="_8" class="fil1 str0" points="151.18,92.17 151.18,91.99 186.48,37.38 186.48,34.13 149.92,34.13 149.92,37.28 182.51,37.28 182.51,37.47 147.12,92.17 147.12,95.33 188.01,95.33 188.01,92.17 "/>
   <path id="_9" class="fil1 str0" d="M238.47 74.65l0 -40.52 -3.43 0 0 40.98c0,10.92 -6.05,17.87 -16.07,17.87 -9.29,0 -16.15,-6.32 -16.15,-17.87l0 -40.98 -3.61 0 0 41.88c0,11.82 8.21,20.22 19.58,20.22 11.29,0 19.68,-7.76 19.68,-21.58z"/>
   <path id="_10" class="fil1 str0" d="M279.18 33.22c-15.79,0 -29.97,11.65 -29.97,31.96 0,20.13 12.73,30.6 27.9,30.6 6.86,0 13.63,-1.09 18.77,-3.07l0 -26.36 -18.86 0 0 3.16 15.25 0 0 20.85c-4.06,1.45 -9.3,2.17 -14.26,2.17 -14.26,0 -24.82,-10.2 -24.82,-27.8 0,-17.7 11.73,-28.26 25.72,-28.26 5.15,0 10.92,1.36 14.72,3.16l0.45 -3.52c-3.34,-1.62 -8.4,-2.89 -14.9,-2.89z"/>
   <path id="_11" class="fil1 str0" d="M346.79 95.33l3.79 0 -21.48 -61.2 -3.7 0 -21.48 61.2 3.61 0 7.4 -21.58 24.46 0 7.4 21.58zm-30.78 -24.74l11.1 -32.04 0.27 0 11.02 32.04 -22.39 0z"/>
   <path id="_12" class="fil1 str0" d="M360.51 48.66c0,8.12 5.69,12.82 13.45,16.34 9.57,4.33 13.9,7.49 13.9,15.25 0,8.04 -7.22,12.73 -15.7,12.73 -5.33,0 -9.48,-0.81 -13.63,-2.35l-0.45 3.34c4.06,1.63 8.39,2.26 13.72,2.26 12.09,0 19.94,-7.13 19.94,-17.06 0,-7.94 -5.23,-12.19 -14.08,-16.25 -8.66,-3.97 -13.27,-7.04 -13.27,-15.07 0,-7.14 6.14,-11.38 13.54,-11.38 4.79,0 8.49,0.81 11.2,2.17l0.45 -3.25c-2.44,-1.26 -6.59,-2.17 -11.65,-2.17 -8.75,0 -17.42,5.06 -17.42,15.44z"/>
   <path id="_13" class="fil1 str0" d="M401.67 64.91c0,20.13 13.18,31.32 27.9,31.32 6.04,0 11.91,-0.9 16.33,-2.8l-0.45 -3.34c-4.87,1.99 -10.02,2.89 -14.98,2.89 -13.81,0 -24.83,-10.65 -24.83,-28.25 0,-17.25 11.92,-28.26 25.64,-28.26 5.15,0 10.56,1.09 15.08,2.8l0.45 -3.25c-3.34,-1.8 -9.3,-2.8 -15.8,-2.8 -15.8,0 -29.34,12.64 -29.34,31.69z"/>
   <path id="_14" class="fil1 str0" d="M495.28 95.33l3.79 0 -21.48 -61.2 -3.7 0 -21.49 61.2 3.61 0 7.41 -21.58 24.46 0 7.4 21.58zm-30.78 -24.74l11.1 -32.04 0.27 0 11.01 32.04 -22.38 0z"/>
   <path id="_15" class="fil1 str0" d="M555.49 34.13l-3.34 0 0 39.53c0,5.42 0,10.83 0.27,18.15l-0.27 0c-4.52,-7.32 -8.04,-12.73 -11.65,-18.15l-26.08 -39.53 -4.97 0 0 61.2 3.34 0 0 -39.54c0,-5.42 0,-10.83 -0.27,-18.05l0.27 0c4.42,7.22 8.04,12.63 11.65,18.05l26.08 39.54 4.97 0 0 -61.2z"/>
   <g>
    <path class="fil2" d="M58.41 59.9l-10.37 10.9c-22.71,0.72 -47.45,4.48 -47.85,-22.35 -0.85,-56.62 -2.83,-47.97 94.28,-47.98 31.65,0 36.31,4.06 34.57,36.89l-10.48 -0.01c-1.28,-33.21 4.26,-26.12 -77,-26.12 -10.39,0 -24.59,-2.12 -28.91,5.04 -2.6,4.3 -2.21,27.1 -1.62,33.07 1.21,12.12 12.9,10.67 23.91,10.67 10.61,0 17.97,1.02 23.47,-0.11z"/>
    <path class="fil3" d="M36.93 84.59c-2.46,2.43 -4.3,4.14 -6.68,6.53 -3.95,3.97 -3.18,4.21 -3.19,11.47l75.3 0.01 -0.2 -10.71 -55.89 0.02 52.35 -52.56c4.56,-4.39 3.73,-3.91 3.73,-12.04l-75.28 0.01 0.19 10.73 55.87 -0.04c-4.81,6.43 -12.07,12.2 -17.46,17.96 -8.16,8.71 -19.85,19.8 -28.74,28.62z"/>
    <path class="fil2" d="M72.23 70.78c50.42,0.42 46.21,-5.8 46.21,32.76 0,11.94 -3.25,15.14 -15.15,15.14l-78.27 0c-16.27,0 -14.04,-9.62 -14.04,-25.39l-10.76 -0.01c0,15.05 -2.64,36.17 21.49,36.17l85.99 -0.01c26.36,0 21.5,-25.7 21.49,-49.05 -0.01,-14.7 -9.3,-20.42 -23.65,-20.39 -17.38,0.03 -24.58,-3.8 -33.31,10.78z"/>
   </g>
  </g>
 </g>
</svg>
